<?xml version="1.0" encoding="UTF-8" standalone="no"?>
<svg
   xmlns:osb="http://www.openswatchbook.org/uri/2009/osb"
   xmlns:dc="http://purl.org/dc/elements/1.1/"
   xmlns:cc="http://creativecommons.org/ns#"
   xmlns:rdf="http://www.w3.org/1999/02/22-rdf-syntax-ns#"
   xmlns:svg="http://www.w3.org/2000/svg"
   xmlns="http://www.w3.org/2000/svg"
   xmlns:xlink="http://www.w3.org/1999/xlink"
   xmlns:sodipodi="http://sodipodi.sourceforge.net/DTD/sodipodi-0.dtd"
   xmlns:inkscape="http://www.inkscape.org/namespaces/inkscape"
   sodipodi:docname="fig_9_3.svg"
   inkscape:version="1.0 (4035a4f, 2020-05-01)"
   id="svg8"
   version="1.1"
   viewBox="0 0 159.59897 124.05501"
   height="124.05501mm"
   width="159.59897mm">
  <defs
     id="defs2">
    <marker
       inkscape:isstock="true"
       style="overflow:visible"
       id="Arrow1Lstart"
       refX="0"
       refY="0"
       orient="auto"
       inkscape:stockid="Arrow1Lstart">
      <path
         transform="matrix(0.8,0,0,0.8,10,0)"
         style="fill:#e3e2db;fill-opacity:1;fill-rule:evenodd;stroke:#000000;stroke-width:1pt;stroke-opacity:1"
         d="M 0,0 5,-5 -12.5,0 5,5 Z"
         id="path6114" />
    </marker>
    <marker
       inkscape:isstock="true"
       style="overflow:visible"
       id="Arrow2Lend"
       refX="0"
       refY="0"
       orient="auto"
       inkscape:stockid="Arrow2Lend">
      <path
         transform="matrix(-1.1,0,0,-1.1,-1.1,0)"
         d="M 8.7185878,4.0337352 -2.2072895,0.01601326 8.7185884,-4.0017078 c -1.7454984,2.3720609 -1.7354408,5.6174519 -6e-7,8.035443 z"
         style="fill:#000000;fill-opacity:1;fill-rule:evenodd;stroke:#000000;stroke-width:0.625;stroke-linejoin:round;stroke-opacity:1"
         id="path6135" />
    </marker>
    <marker
       inkscape:isstock="true"
       style="overflow:visible"
       id="Arrow1Lend"
       refX="0"
       refY="0"
       orient="auto"
       inkscape:stockid="Arrow1Lend">
      <path
         transform="matrix(-0.8,0,0,-0.8,-10,0)"
         style="fill:#000000;fill-opacity:1;fill-rule:evenodd;stroke:#000000;stroke-width:1pt;stroke-opacity:1"
         d="M 0,0 5,-5 -12.5,0 5,5 Z"
         id="path6117" />
    </marker>
    <linearGradient
       osb:paint="solid"
       id="linearGradient5939">
      <stop
         id="stop5937"
         offset="0"
         style="stop-color:#f4eed7;stop-opacity:1;" />
    </linearGradient>
    <linearGradient
       id="linearGradient5739"
       inkscape:collect="always">
      <stop
         id="stop5735"
         offset="0"
         style="stop-color:#ffff00;stop-opacity:1;" />
      <stop
         id="stop5737"
         offset="1"
         style="stop-color:#ffff00;stop-opacity:0;" />
    </linearGradient>
    <linearGradient
       gradientTransform="matrix(0.61452788,0,0,0.60170675,46.39023,56.332152)"
       gradientUnits="userSpaceOnUse"
       y2="157.64053"
       x2="165.09097"
       y1="157.64053"
       x1="44.229969"
       id="linearGradient5741"
       xlink:href="#linearGradient5739"
       inkscape:collect="always" />
    <marker
       inkscape:stockid="Arrow1Lend"
       orient="auto"
       refY="0"
       refX="0"
       id="Arrow1Lend-9"
       style="overflow:visible"
       inkscape:isstock="true">
      <path
         id="path6117-5"
         d="M 0,0 5,-5 -12.5,0 5,5 Z"
         style="fill:#000000;fill-opacity:1;fill-rule:evenodd;stroke:#000000;stroke-width:1pt;stroke-opacity:1"
         transform="matrix(-0.8,0,0,-0.8,-10,0)" />
    </marker>
    <marker
       inkscape:isstock="true"
       style="overflow:visible"
       id="Arrow1Lend-9-2"
       refX="0"
       refY="0"
       orient="auto"
       inkscape:stockid="Arrow1Lend">
      <path
         transform="matrix(-0.8,0,0,-0.8,-10,0)"
         style="fill:#000000;fill-opacity:1;fill-rule:evenodd;stroke:#000000;stroke-width:1pt;stroke-opacity:1"
         d="M 0,0 5,-5 -12.5,0 5,5 Z"
         id="path6117-5-7" />
    </marker>
    <marker
       inkscape:isstock="true"
       style="overflow:visible"
       id="Arrow1Lend-9-9"
       refX="0"
       refY="0"
       orient="auto"
       inkscape:stockid="Arrow1Lend">
      <path
         transform="matrix(-0.8,0,0,-0.8,-10,0)"
         style="fill:#000000;fill-opacity:1;fill-rule:evenodd;stroke:#000000;stroke-width:1pt;stroke-opacity:1"
         d="M 0,0 5,-5 -12.5,0 5,5 Z"
         id="path6117-5-77" />
    </marker>
    <marker
       inkscape:stockid="Arrow1Lend"
       orient="auto"
       refY="0"
       refX="0"
       id="Arrow1Lend-9-2-8"
       style="overflow:visible"
       inkscape:isstock="true">
      <path
         id="path6117-5-7-5"
         d="M 0,0 5,-5 -12.5,0 5,5 Z"
         style="fill:#000000;fill-opacity:1;fill-rule:evenodd;stroke:#000000;stroke-width:1pt;stroke-opacity:1"
         transform="matrix(-0.8,0,0,-0.8,-10,0)" />
    </marker>
    <marker
       inkscape:stockid="Arrow1Lend"
       orient="auto"
       refY="0"
       refX="0"
       id="Arrow1Lend-1"
       style="overflow:visible"
       inkscape:isstock="true">
      <path
         id="path6117-2"
         d="M 0,0 5,-5 -12.5,0 5,5 Z"
         style="fill:#000000;fill-opacity:1;fill-rule:evenodd;stroke:#000000;stroke-width:1pt;stroke-opacity:1"
         transform="matrix(-0.8,0,0,-0.8,-10,0)" />
    </marker>
    <marker
       inkscape:stockid="Arrow1Lend"
       orient="auto"
       refY="0"
       refX="0"
       id="Arrow1Lend-3"
       style="overflow:visible"
       inkscape:isstock="true">
      <path
         id="path6117-9"
         d="M 0,0 5,-5 -12.5,0 5,5 Z"
         style="fill:#000000;fill-opacity:1;fill-rule:evenodd;stroke:#000000;stroke-width:1pt;stroke-opacity:1"
         transform="matrix(-0.8,0,0,-0.8,-10,0)" />
    </marker>
    <marker
       inkscape:stockid="Arrow1Lend"
       orient="auto"
       refY="0"
       refX="0"
       id="Arrow1Lend-96"
       style="overflow:visible"
       inkscape:isstock="true">
      <path
         id="path6117-1"
         d="M 0,0 5,-5 -12.5,0 5,5 Z"
         style="fill:#000000;fill-opacity:1;fill-rule:evenodd;stroke:#000000;stroke-width:1pt;stroke-opacity:1"
         transform="matrix(-0.8,0,0,-0.8,-10,0)" />
    </marker>
    <marker
       inkscape:stockid="Arrow1Lend"
       orient="auto"
       refY="0"
       refX="0"
       id="Arrow1Lend-39"
       style="overflow:visible"
       inkscape:isstock="true">
      <path
         id="path6117-8"
         d="M 0,0 5,-5 -12.5,0 5,5 Z"
         style="fill:#000000;fill-opacity:1;fill-rule:evenodd;stroke:#000000;stroke-width:1pt;stroke-opacity:1"
         transform="matrix(-0.8,0,0,-0.8,-10,0)" />
    </marker>
    <marker
       inkscape:stockid="Arrow1Lend"
       orient="auto"
       refY="0"
       refX="0"
       id="Arrow1Lend-0"
       style="overflow:visible"
       inkscape:isstock="true">
      <path
         id="path6117-6"
         d="M 0,0 5,-5 -12.5,0 5,5 Z"
         style="fill:#000000;fill-opacity:1;fill-rule:evenodd;stroke:#000000;stroke-width:1pt;stroke-opacity:1"
         transform="matrix(-0.8,0,0,-0.8,-10,0)" />
    </marker>
    <marker
       inkscape:stockid="Arrow1Lend"
       orient="auto"
       refY="0"
       refX="0"
       id="Arrow1Lend-4"
       style="overflow:visible"
       inkscape:isstock="true">
      <path
         id="path6117-69"
         d="M 0,0 5,-5 -12.5,0 5,5 Z"
         style="fill:#000000;fill-opacity:1;fill-rule:evenodd;stroke:#000000;stroke-width:1pt;stroke-opacity:1"
         transform="matrix(-0.8,0,0,-0.8,-10,0)" />
    </marker>
    <marker
       inkscape:stockid="Arrow1Lend"
       orient="auto"
       refY="0"
       refX="0"
       id="Arrow1Lend-9-2-8-9"
       style="overflow:visible"
       inkscape:isstock="true">
      <path
         id="path6117-5-7-5-0"
         d="M 0,0 5,-5 -12.5,0 5,5 Z"
         style="fill:#000000;fill-opacity:1;fill-rule:evenodd;stroke:#000000;stroke-width:1pt;stroke-opacity:1"
         transform="matrix(-0.8,0,0,-0.8,-10,0)" />
    </marker>
    <marker
       inkscape:isstock="true"
       style="overflow:visible"
       id="Arrow1Lend-9-2-8-9-8"
       refX="0"
       refY="0"
       orient="auto"
       inkscape:stockid="Arrow1Lend">
      <path
         transform="matrix(-0.8,0,0,-0.8,-10,0)"
         style="fill:#000000;fill-opacity:1;fill-rule:evenodd;stroke:#000000;stroke-width:1pt;stroke-opacity:1"
         d="M 0,0 5,-5 -12.5,0 5,5 Z"
         id="path6117-5-7-5-0-8" />
    </marker>
    <marker
       inkscape:isstock="true"
       style="overflow:visible"
       id="Arrow1Lend-9-2-8-9-9"
       refX="0"
       refY="0"
       orient="auto"
       inkscape:stockid="Arrow1Lend">
      <path
         transform="matrix(-0.8,0,0,-0.8,-10,0)"
         style="fill:#000000;fill-opacity:1;fill-rule:evenodd;stroke:#000000;stroke-width:1pt;stroke-opacity:1"
         d="M 0,0 5,-5 -12.5,0 5,5 Z"
         id="path6117-5-7-5-0-0" />
    </marker>
    <marker
       inkscape:stockid="Arrow1Lend"
       orient="auto"
       refY="0"
       refX="0"
       id="Arrow1Lend-9-2-8-9-9-3"
       style="overflow:visible"
       inkscape:isstock="true">
      <path
         id="path6117-5-7-5-0-0-4"
         d="M 0,0 5,-5 -12.5,0 5,5 Z"
         style="fill:#000000;fill-opacity:1;fill-rule:evenodd;stroke:#000000;stroke-width:1pt;stroke-opacity:1"
         transform="matrix(-0.8,0,0,-0.8,-10,0)" />
    </marker>
    <marker
       inkscape:isstock="true"
       style="overflow:visible"
       id="Arrow1Lend-1-3"
       refX="0"
       refY="0"
       orient="auto"
       inkscape:stockid="Arrow1Lend">
      <path
         transform="matrix(-0.8,0,0,-0.8,-10,0)"
         style="fill:#000000;fill-opacity:1;fill-rule:evenodd;stroke:#000000;stroke-width:1pt;stroke-opacity:1"
         d="M 0,0 5,-5 -12.5,0 5,5 Z"
         id="path6117-2-0" />
    </marker>
    <marker
       inkscape:stockid="Arrow1Lend"
       orient="auto"
       refY="0"
       refX="0"
       id="Arrow1Lend-1-3-9"
       style="overflow:visible"
       inkscape:isstock="true">
      <path
         id="path6117-2-0-9"
         d="M 0,0 5,-5 -12.5,0 5,5 Z"
         style="fill:#000000;fill-opacity:1;fill-rule:evenodd;stroke:#000000;stroke-width:1pt;stroke-opacity:1"
         transform="matrix(-0.8,0,0,-0.8,-10,0)" />
    </marker>
  </defs>
  <sodipodi:namedview
     fit-margin-bottom="0"
     fit-margin-right="0"
     fit-margin-left="0"
     fit-margin-top="0"
     inkscape:window-maximized="0"
     inkscape:window-y="72"
     inkscape:window-x="8"
     inkscape:window-height="755"
     inkscape:window-width="1252"
     inkscape:snap-global="false"
     inkscape:guide-bbox="true"
     showguides="false"
     showgrid="false"
     inkscape:document-rotation="0"
     inkscape:current-layer="layer1"
     inkscape:document-units="mm"
     inkscape:cy="164.52991"
     inkscape:cx="331.564"
     inkscape:zoom="0.97035431"
     inkscape:pageshadow="2"
     inkscape:pageopacity="0.0"
     borderopacity="1.0"
     bordercolor="#666666"
     pagecolor="#ffffff"
     id="base">
    <sodipodi:guide
       id="guide2484"
       orientation="1,0"
       position="-410.36889,117.70708" />
    <inkscape:grid
       originy="-88.146112"
       originx="-34.660558"
       id="grid5745"
       type="xygrid" />
  </sodipodi:namedview>
  <metadata
     id="metadata5">
    <rdf:RDF>
      <cc:Work
         rdf:about="">
        <dc:format>image/svg+xml</dc:format>
        <dc:type
           rdf:resource="http://purl.org/dc/dcmitype/StillImage" />
        <dc:title></dc:title>
      </cc:Work>
    </rdf:RDF>
  </metadata>
  <g
     transform="translate(-34.660557,-88.146111)"
     id="layer1"
     inkscape:groupmode="layer"
     inkscape:label="Layer 1">
    <rect
       y="88.146111"
       x="34.660557"
       height="124.05501"
       width="159.59897"
       id="rect5733"
       style="fill:#e3e2db;stroke-width:0.192778" />
    <ellipse
       ry="36.36565"
       rx="37.136227"
       cy="151.18552"
       cx="110.70699"
       id="path4908"
       style="opacity:1;fill:url(#linearGradient5741);fill-opacity:1;stroke-width:0.161765" />
    <path
       sodipodi:nodetypes="csssccccsccscscccssssssscsccsssccssscssssssccscssssc"
       id="path2128"
       d="m 41.768487,141.20173 c -0.253855,0.33847 -0.572352,0.637 -0.761564,1.01542 -0.07569,0.15137 0.338473,0 0.507709,0 h 2.030837 c 1.674801,0 3.173565,-0.0934 4.823239,0.25386 0.86449,0.18199 1.670238,0.59875 2.538546,0.76156 0.238285,0.0447 2.438697,-0.0372 2.792401,0 2.284496,0.24047 7.080262,1.0858 9.392622,0.50771 0.367125,-0.0918 0.652954,-0.39897 1.015418,-0.50771 0.927843,-0.27835 2.079641,-0.51991 3.046256,-0.76156 0.21068,-0.0527 0.569259,0.0961 0.761564,0 1.095684,-0.54785 -1.798715,-0.27044 1.523129,-0.50771 1.434854,-0.10249 2.884157,0.14313 4.315529,0 0.188272,-0.0188 0.324146,-0.20797 0.507709,-0.25386 0.79766,-0.19941 1.730899,0.16153 2.538547,0 0.26239,-0.0525 0.507709,-0.16924 0.761564,-0.25385 0.507708,-0.0846 1.013587,-0.18107 1.523126,-0.25386 0.673783,-0.0962 1.804496,0.38482 2.284693,0.25386 1.275205,-0.34779 1.906969,-1.86838 3.046257,-2.53855 0.785537,-0.46208 1.712679,-0.63001 2.538544,-1.01542 1.548694,-0.72272 2.64314,-2.17331 4.061675,-3.04625 1.611442,-0.99166 3.454614,-1.56506 5.077095,-2.53855 0.464605,-0.27877 0.813503,-0.72242 1.269272,-1.01542 0.732832,-0.47111 1.551858,-0.79816 2.28469,-1.26927 0.455765,-0.293 0.846185,-0.67695 1.269275,-1.01542 0.59233,-0.42309 1.16287,-0.87847 1.77698,-1.26927 1.00325,-0.63843 2.05033,-1.11303 3.04626,-1.77699 0.0704,-0.0469 -0.0508,-0.18616 0,-0.25385 0.2154,-0.28721 0.48577,-0.53174 0.76156,-0.76157 0.29071,-0.24226 0.74783,-0.24012 1.01542,-0.50771 0.29917,-0.29916 0.46239,-0.71624 0.76157,-1.01541 0.0598,-0.0598 0.19401,0.0598 0.25385,0 0.13379,-0.1338 0.94911,0.63352 1.11836,0.54891 0.57025,-0.28513 2.1539,0.50596 2.9502,0.16469 0.775,-0.33214 2.50456,0.32488 3.21095,-0.11661 0.45946,-0.28716 0.24786,-1.81126 0.78898,-1.78386 1.76476,0.0894 0.10069,-1.5362 0.30871,-1.60553 0.74011,-0.24671 1.10802,-1.12175 1.77698,-1.52313 0.74837,-0.44902 2.53425,-0.0624 3.30011,-0.25386 0.7788,-0.1947 1.56669,-0.40256 2.2847,-0.76156 0.71196,-0.35598 1.01775,-1.27161 1.52312,-1.77698 0.72752,-0.72752 0.69727,-0.34863 1.52313,-0.76157 0.7346,-0.36729 0.86219,-1.33635 1.52313,-1.77698 0.22395,-0.1493 0.73881,0.0553 1.01542,0 3.46133,-0.69227 6.49944,1.41249 9.90033,2.03084 0.54379,0.0989 1.70429,-0.32655 2.03084,0 0.0598,0.0598 -0.0803,0.22709 0,0.25385 1.01228,0.33743 6.46812,0 8.12335,0 0.80251,0 4.62473,0.38403 5.5848,0 0.28327,-0.11331 0.47589,-0.40058 0.76156,-0.50771 0.78799,-0.29549 1.96276,-0.55415 2.7924,-0.76156 0.80839,-0.2021 1.47067,0.15316 2.2847,-0.25386"
       style="fill:none;stroke:#000000;stroke-width:0.264583px;stroke-linecap:butt;stroke-linejoin:miter;stroke-opacity:1" />
    <path
       sodipodi:nodetypes="csscssscsccssssscsssssscccsssssssssssc"
       id="path2130"
       d="m 63.85384,144.24799 c 0.758701,1.25274 2.260349,1.85348 3.553966,2.28469 1.028575,0.34286 4.659394,-0.4177 5.077094,0 0.133792,0.13379 0.12006,0.37391 0.253855,0.50771 2.117939,2.11794 4.704995,0.976 7.107928,1.77698 1.335151,0.44505 0.662784,0.45832 1.776984,1.01542 0.77266,0.38633 1.927069,0.72698 2.792402,1.01542 0.393586,0.1312 1.153361,-0.0462 1.523127,0 1.104384,0.13805 2.204066,0.31429 3.30011,0.50771 1.015424,0.17919 2.038247,0.61756 3.046257,0.76156 0.335071,0.0479 0.689967,-0.093 1.015418,0 0.671382,0.19183 0.978426,0.9612 1.776981,0.76156 1.682451,-0.42061 3.541003,-1.00893 5.077098,-1.77698 1.13386,-0.56693 0.41114,-0.91885 0.76156,-1.26927 0.11967,-0.11967 0.33847,0 0.50771,0 0.16923,0 0.38804,-0.11967 0.50771,0 0.13379,0.13379 0.0999,0.39773 0.25385,0.50771 1.2937,0.92407 2.91046,1.28697 4.31553,2.03084 0.70552,0.37351 1.25639,1.07566 2.03084,1.26927 0.47784,0.11946 1.04528,-0.11946 1.52313,0 1.63566,0.40892 3.19664,1.07951 4.82323,1.52313 2.09102,0.57028 4.2453,0.80237 6.34637,1.26927 2.29476,0.50995 5.07665,-2.33367 4.89863,-2.16133 -0.42557,0.41199 3.42435,3.751 3.98628,3.93831 0.0803,0.0268 -0.0803,0.2271 0,0.25386 0.24083,0.0803 0.51181,-0.0454 0.76157,0 0.68652,0.12482 1.3466,0.37086 2.03084,0.50771 0.91272,0.18254 1.8616,0 2.7924,0 1.17899,0 2.20702,0.3972 3.30011,0.76156 1.06383,0.35461 6.14911,0 7.61563,0 0.47739,0 1.58007,-0.15026 2.03084,0 0.56703,0.18901 2.29518,2.13293 2.53855,2.53855 0.1947,0.32449 0.24012,0.74783 0.50771,1.01542 1.54944,1.54944 -0.0101,-1.79718 1.52313,1.26927 0.33751,0.67503 0.25806,1.78119 1.01541,2.53855 0.18922,0.18921 0.5475,0.0933 0.76157,0.25385 1.13762,0.85321 2.13546,1.96051 3.30011,2.7924 0.37731,0.26951 1.26927,-0.38442 1.26927,0.25386"
       style="fill:none;stroke:#000000;stroke-width:0.264583px;stroke-linecap:butt;stroke-linejoin:miter;stroke-opacity:1" />
    <path
       id="path2132"
       d="m 61.315295,187.40328 c -2.36931,-0.29552 0.253855,1.36431 0.253855,1.01542 0,-0.3489 -0.52188,-0.79207 -0.253855,-1.01542 0.459658,-0.38305 1.196507,-0.10874 1.776982,-0.25386 0.437181,-0.10929 1.016074,-0.6348 1.523129,-0.76156 0.402328,-0.10058 1.107372,0 1.523127,0 2.542998,0 4.938252,-0.0767 7.107931,-1.52313 0.199138,-0.13276 0.449662,-0.27552 0.507709,-0.50771 0.04589,-0.18356 -0.358812,-0.35027 -0.253855,-0.50771 0.148429,-0.22264 0.507709,-0.16923 0.761564,-0.25385 0.42309,-1.01542 0.958879,-1.99092 1.269272,-3.04626 0.399603,-1.35864 -0.587642,-3.30713 0.253855,-4.56938 0.416795,-0.62519 5.463868,-1.05973 6.092512,-1.26927 0.380783,-0.12693 -0.190391,-0.57118 0,-0.76157 0.525045,-0.52504 0.677654,-0.31121 1.015418,-0.76156 0.339479,-0.45264 0.52809,-0.94439 1.015418,-1.26928 0.281628,-0.18775 0.704313,0.13334 1.015421,0 0.388882,-0.16666 0.652621,-0.54388 1.015418,-0.76156 1.69832,-1.01899 4.114289,0.52768 5.330946,1.52313 0.194173,0.15887 1.52313,1.24256 1.52313,1.77698"
       style="fill:none;stroke:#000000;stroke-width:0.264583px;stroke-linecap:butt;stroke-linejoin:miter;stroke-opacity:1" />
    <path
       id="path2134"
       d="m 92.793272,174.45669 h 0.253854"
       style="fill:none;stroke:#000000;stroke-width:0.264583px;stroke-linecap:butt;stroke-linejoin:miter;stroke-opacity:1" />
    <path
       id="path2136"
       d="m 48.622562,167.09491 c 0.338473,0.25385 0.626537,0.5949 1.015419,0.76156 0.625909,0.26825 1.971372,-0.37812 2.538546,0 0.310893,0.20726 1.632478,1.58004 2.030838,1.52313 0.226048,-0.0323 3.130827,-2.45384 3.30011,-2.7924 0.154285,-0.30857 0.455863,-2.03084 1.269273,-2.03084 0.08462,0 -0.05983,0.19402 0,0.25385 0.119668,0.11967 0.338473,0 0.50771,0 1.683859,0 -0.359005,0.11967 0.761564,-0.25385 0.758391,-0.2528 1.76283,0.19393 2.538546,0 0.617281,-0.15432 1.23553,-0.49084 1.776984,-0.76156 0.489251,-0.24463 1.276464,-0.004 1.776981,-0.25386 0.742461,-0.37123 1.347137,-0.92742 2.030836,-1.26927 0.457885,-0.22895 3.664349,-0.39918 4.315531,-0.50771 0.605642,-0.10094 3.956418,0.89158 4.823238,1.01542 0.251304,0.0359 0.507709,0 0.761563,0 0.761564,0.16923 1.519701,0.35471 2.284693,0.50771 0.405369,0.0811 0.865929,-0.0896 1.269273,0 0.681162,0.15137 1.339178,0.41548 2.030836,0.50771 0.587131,0.0783 1.20234,-0.14367 1.776984,0 0.808508,0.20212 1.499851,0.73511 2.28469,1.01541 0.484727,0.17312 1.062757,0.0237 1.523129,0.25386 0.629973,0.31498 1.320605,0.61952 2.030836,0.76156 2.224175,0.44484 4.534083,-0.13281 6.854076,0.25386 0.23608,0.0393 0.276807,0.44473 0.507709,0.50771 0.832533,0.22705 1.687353,0.36584 2.538543,0.50771 0.964,0.16066 1.83701,-0.41309 2.79241,-0.25386 0.51121,0.0852 4.171,2.43738 4.31553,2.53855 0.155,0.1085 0.12006,0.37391 0.25385,0.50771 0.49163,0.49163 1.62899,0.59764 2.28469,0.76156 2.29072,0.57268 4.87824,0.15443 7.10793,1.26927 0.0757,0.0379 -0.0378,0.17817 0,0.25386 0.33847,0.67695 0.55396,1.43094 1.01542,2.03084 0.47566,0.61835 1.2522,0.94587 1.77698,1.52312 0.3319,0.36509 0.45334,0.88399 0.76157,1.26928 0.30761,0.38451 6.05556,0.10845 6.85407,0.50771 0.15137,0.0757 0,0.33847 0,0.50771 0,0.44905 -0.13682,1.11267 0,1.52312 0.0378,0.11353 0.16924,0.16924 0.25386,0.25386 0.0846,0.16924 0.20796,0.32414 0.25385,0.50771 0.25284,1.01135 0.002,2.03504 0.50771,3.04625 0.35174,0.70349 0.66573,0.91958 1.26927,1.52313 0.3097,0.3097 0.4964,1.17711 1.01542,1.52313 0.15744,0.10495 0.37392,0.12006 0.50771,0.25385 0.12693,0.12693 -0.12693,0.63464 0,0.76157 0.31582,0.31582 1.42566,0.86412 2.03084,1.01542 0.85009,0.21252 1.94983,-0.59305 2.7924,-0.76157 0.96207,-0.19241 5.52909,-0.0557 6.09251,0.50771 0.31285,0.31284 0.38975,2.96419 0.50771,3.55397 0.10146,0.50728 -0.75496,1.3863 -1.01542,1.77698"
       style="fill:none;stroke:#000000;stroke-width:0.264583px;stroke-linecap:butt;stroke-linejoin:miter;stroke-opacity:1" />
    <path
       id="path2138"
       d="m 70.454062,161.76396 c 0.338473,0 0.701154,0.1257 1.015418,0 0.429212,-0.17169 0.618694,-1.25864 1.01542,-1.52313 0.290293,-0.19353 0.768715,-0.007 1.015418,-0.25385 0.243991,-0.244 -0.04698,-0.99193 0.507709,-1.26928 0.419333,-0.20966 0.489196,0.14081 1.015418,-0.25385 0.287205,-0.2154 0.44046,-0.60101 0.761564,-0.76156 0.49341,-0.24671 4.537717,-0.34904 4.82324,-0.25386 1.046668,0.34889 1.8616,1.18465 2.792399,1.77698 0.294346,0.18731 0.725125,0.0603 1.015421,0.25386 0.157432,0.10495 0.09642,0.40275 0.253854,0.50771 0.152313,0.10154 0.55848,-0.0508 0.761564,0 1.467985,0.36699 2.780212,0.75953 4.315528,1.01541 0.550379,0.0917 1.249294,-0.17589 1.776982,0 0.916405,0.30547 2.095608,0.61532 3.046256,0.76157 1.090456,0.16776 2.313302,-0.23955 3.300111,0.25385 0.124788,0.0624 0.594138,1.06511 1.523127,0.50771 0.307845,-0.1847 0.474361,-0.54616 0.761569,-0.76156 0.27624,-0.20718 1.19224,-0.14356 1.52312,-0.25386 0.45411,-0.15137 0.63248,-0.72821 1.01542,-1.01542 0.0677,-0.0508 0.21602,0.0757 0.25386,0 0.19322,-0.38643 0,-1.60876 0,-2.03083"
       style="fill:none;stroke:#000000;stroke-width:0.264583px;stroke-linecap:butt;stroke-linejoin:miter;stroke-opacity:1" />
    <path
       sodipodi:nodetypes="ccscccsscssssc"
       id="path2140"
       d="m 115.88026,124.1936 c 0.0229,0.42309 2.73708,0.72373 2.66216,1.17321 -0.038,0.22823 1.66715,0.19823 1.66715,0.60364 0,0.11967 -0.22483,0.13776 -0.25385,0.25386 -0.16332,0.65327 -0.005,2.59306 0.25385,3.04625 0.62123,1.08716 4.42705,-1.30008 5.0771,0 0.89876,1.79754 5.72726,0.8916 7.61564,1.26928 2.51765,0.50353 4.90105,1.83548 7.36178,2.53854 0.64707,0.18488 4.24335,-0.0606 4.82324,-0.25385 0.36003,-0.12001 0.36246,-0.61631 0.50771,-0.76157 0.0684,-0.0684 0.93025,-0.0843 1.26927,-0.25385 0.15754,-0.0788 0.9025,0 1.01542,0 0.79522,0 1.75207,-0.14299 2.53854,0 2.50575,0.45559 4.82801,1.26927 7.36179,1.26927"
       style="fill:none;stroke:#000000;stroke-width:0.26499999;stroke-linecap:butt;stroke-linejoin:miter;stroke-opacity:1;stroke-miterlimit:4;stroke-dasharray:1.05999995,0.52999997;stroke-dashoffset:0" />
    <path
       id="path2142"
       d="m 157.78006,133.07838 v -0.50771"
       style="fill:none;stroke:#000000;stroke-width:0.264583px;stroke-linecap:butt;stroke-linejoin:miter;stroke-opacity:1" />
    <path
       id="path2144"
       d="m 157.78006,132.57067 h -0.25385"
       style="fill:none;stroke:#000000;stroke-width:0.264583px;stroke-linecap:butt;stroke-linejoin:miter;stroke-opacity:1" />
    <path
       id="path2146"
       d="m 157.52621,132.57067 h 0.5077"
       style="fill:none;stroke:#000000;stroke-width:0.264583px;stroke-linecap:butt;stroke-linejoin:miter;stroke-opacity:1" />
    <path
       sodipodi:nodetypes="cscscscsscssssssssscc"
       id="path2148"
       d="m 126.28154,154.50499 c 0.26256,-0.93156 2.76692,-0.19854 2.96398,-0.34991 2.57307,-1.97649 0.79174,-1.96455 0.86439,-2.29145 0.36469,-1.64113 -2.02425,-0.91935 -2.02425,-2.58669 0,-1.04296 0.0879,-1.50425 0.27459,-1.49582 0,0 1.2048,-0.30853 1.65331,-0.30853 0.37774,0 1.72154,-0.58486 1.87333,-0.68606 1.26502,-1.26502 0.0218,-0.26111 0.76156,-0.5077 1.09959,-0.36654 1.46141,-1.62607 2.28469,-2.2847 0.13215,-0.10572 0.35634,0.0757 0.50771,0 0.81308,-0.40654 0.57301,-0.74707 1.26928,-1.26927 0.52622,-0.39467 0.59608,-0.0442 1.01541,-0.25385 0.18437,-0.0922 0.87654,-1.07291 1.26928,-1.26928 1.49428,-0.74714 3.47223,1.22841 4.56938,1.77698 1.25054,0.62527 2.18302,0.68173 3.55396,1.26928 1.87941,0.80546 0.59474,0.65639 2.03084,1.01542 0.89553,0.22388 1.79937,-1.45344 2.2847,-1.77699 0.0996,-0.0664 0.13418,0.25386 0.25385,0.25386 0.18921,0 0.35996,-0.13566 0.50771,-0.25386 0.37378,-0.29902 0.578,-0.82101 1.01542,-1.01541 1.4028,-0.62347 9.48962,0.76156 9.90033,0.76156"
       style="fill:none;stroke:#000000;stroke-width:0.264583;stroke-linecap:butt;stroke-linejoin:miter;stroke-miterlimit:4;stroke-dasharray:1.05833, 0.529166;stroke-dashoffset:0;stroke-opacity:1" />
  </g>
</svg>
